PathFileType	4	(X/Y/Z)	D:\TRACE\spotREDO_2-26-24\spot_Both_Motion_1_4-v60.trc
DataRate	CameraRate	NumFrames	NumMarkers	Units	OrigDataRate	OrigDataStartFrame	OrigNumFrames
100.00	100.00	      28	9	mm	100.00	1751	      7000
Frame#	Time	front left toe			Front right toe			aft left toe			aft right toe			Arm			FL body			FR body			AL Body			AR Body			
		X1	Y1	Z1	X2	Y2	Z2	X3	Y3	Z3	X4	Y4	Z4	X5	Y5	Z5	X6	Y6	Z6	X7	Y7	Z7	X8	Y8	Z8	X9	Y9	Z9	

1751	17.500	-287.67203	32.30547	-491.85931	189.45923	28.84871	-311.43005	-368.68851	18.99872	107.22453	65.81596	19.33378	164.93680	-11.96342	750.57898	-753.40247	-108.70724	612.49670	-506.99677	45.51180	618.05884	-485.20969	-236.39854	556.61707	365.82272	-96.82800	562.49078	387.91794	
1752	17.510	-287.84616	32.50728	-492.35657	189.11823	28.31430	-311.08130	-369.34143	18.94174	106.93019	65.44923	19.54844	165.07260	-6.72273	750.44580	-750.35999	-106.45988	612.29773	-506.93698	47.50584	617.55585	-484.61819	-237.54309	556.44379	365.64038	-98.23739	562.04187	388.13434	
1753	17.520	-287.51822	32.80083	-492.94415	188.70305	27.54855	-310.74829	-370.00665	18.77185	106.55166	64.08334	19.76366	165.43086	-3.72795	749.76947	-747.75024	-103.46577	612.12714	-506.78870	50.54202	617.06116	-483.39890	-238.45697	556.20752	365.16901	-99.37327	561.86780	388.49631	
1754	17.530	-286.91782	33.30976	-493.41406	188.70488	26.96793	-310.26050	-371.24057	18.55777	106.20059	63.21679	19.91271	165.47520	-2.62422	748.97205	-745.27405	-100.05824	611.86591	-506.31516	53.59575	616.51288	-482.54666	-241.93062	557.04541	365.41150	-101.51249	561.38281	388.53516	
1755	17.540	-286.09381	33.33502	-494.41779	188.49146	26.27038	-309.79773	-372.02734	18.64510	105.86361	62.39507	20.16753	165.90112	-3.20891	748.19006	-743.10284	-96.30919	611.58087	-505.99814	57.15666	615.85010	-481.12711	-242.91853	557.06439	364.98618	-102.77177	561.20728	388.98798	
1756	17.550	-285.45935	33.22321	-495.22977	188.36803	25.82011	-309.29483	-372.57938	18.57607	105.51660	61.51226	20.17996	165.91635	-5.40336	747.28894	-741.56531	-92.82312	611.18817	-505.50754	60.78240	615.40051	-479.92664	-243.91682	556.68073	364.19122	-104.21866	560.91010	389.40555	
1757	17.560	-285.54626	33.12764	-495.67508	188.27782	25.30341	-308.61581	-373.10242	18.60738	105.38969	60.72281	20.29658	165.90349	-9.05264	746.53522	-740.27765	-90.27761	610.79437	-504.76990	63.62945	614.63751	-478.78418	-244.21336	556.63782	364.15579	-104.76301	560.88080	389.87308	
1758	17.570	-285.77399	33.07605	-495.75906	187.83893	24.88595	-308.66388	-373.69260	18.81868	105.04256	60.18351	20.37440	166.12349	-13.18235	745.74982	-739.58099	-86.79852	610.02045	-504.37854	66.00378	614.06769	-477.85062	-243.85027	556.68445	364.40509	-104.64114	560.80914	390.23914	
1759	17.580	-286.33521	32.83413	-495.91556	187.13420	24.61042	-308.91367	-374.38626	19.12226	104.89315	59.89454	20.27647	166.15491	-17.69402	745.13007	-739.24384	-84.90105	609.41199	-503.73734	67.92975	613.53778	-476.98206	-242.75591	556.27429	365.03806	-103.47063	560.27600	390.99887	
1760	17.590	-287.23721	32.52066	-495.86996	186.43954	24.32906	-309.34940	-374.70874	19.38256	104.78262	59.49857	20.06602	166.17537	-21.37196	744.90790	-739.24640	-84.15710	609.17664	-503.07693	68.70538	613.22369	-476.45096	-240.92143	555.87604	365.85721	-101.23595	560.22699	391.86981	
1761	17.600	-288.25229	31.97634	-495.54694	185.56548	24.32588	-309.71347	-374.78308	19.91694	105.01695	59.30920	19.70428	166.07492	-24.16682	744.68188	-739.69885	-84.26098	608.45081	-501.95721	68.65324	612.86896	-476.06589	-238.13147	555.34729	367.40802	-98.65229	559.88385	392.74808	
1762	17.610	-289.74860	30.90824	-495.24689	184.84259	24.24949	-310.16968	-374.87018	20.38629	105.29710	59.23816	19.50537	165.86354	-25.27463	744.81067	-740.12762	-84.66927	607.65204	-501.14856	68.24018	612.64929	-475.68124	-233.81865	554.38422	368.73001	-95.09135	559.66882	393.87082	
1763	17.620	-290.98349	30.58956	-494.83667	184.04448	24.23731	-310.53558	-374.79355	20.88307	105.53233	59.14535	19.14812	165.61708	-25.67407	745.02362	-740.68475	-85.84725	607.27356	-500.19061	67.33894	612.45398	-475.37662	-230.48364	553.82581	370.63840	-91.87205	559.25830	394.89087	
1764	17.630	-292.61737	30.04704	-494.37643	183.19205	24.08125	-310.94620	-374.88159	21.26057	105.79581	58.79015	18.85026	165.37325	-24.76401	745.27057	-741.39746	-87.30357	606.48737	-498.96442	66.26671	612.14935	-475.08072	-228.66284	554.23523	373.05621	-88.08121	558.84894	396.11990	
1765	17.640	-293.67685	29.56998	-494.12726	182.17796	23.81343	-311.51984	-374.99567	21.63369	106.23317	58.76203	18.68693	165.29234	-23.01832	745.29681	-741.99512	-88.38662	605.87866	-497.86398	65.12771	611.70032	-474.79642	-224.05717	553.39142	374.84586	-84.72571	558.54675	397.32385	
1766	17.650	-294.91821	29.02640	-494.00714	181.62061	23.63156	-311.61313	-375.36151	21.90482	106.50643	58.52277	18.54650	165.23355	-20.92497	745.55420	-742.81818	-88.99472	605.29108	-496.84070	64.37076	611.06439	-474.26575	-220.88748	552.16394	376.00769	-82.19728	558.20483	398.44949	
1767	17.660	-295.52145	28.77690	-493.92529	181.17972	23.33877	-311.57767	-375.81622	22.00396	106.62062	57.66034	18.22705	165.05402	-19.17786	745.77637	-743.72473	-89.36078	604.67853	-495.54037	64.13837	610.38702	-473.57248	-219.20540	551.76978	377.32602	-79.87076	557.78857	399.67484	
1768	17.670	-296.15295	28.62756	-494.04050	180.48991	22.82676	-311.50159	-376.77142	22.22794	106.51094	57.10930	18.41499	165.22592	-17.43728	745.76172	-744.38495	-88.92862	604.06134	-494.52209	64.55515	609.74384	-472.60898	-217.79688	551.45410	378.67099	-78.57401	557.44055	400.92319	
1769	17.680	-296.55408	28.49111	-494.25284	179.71313	22.32600	-311.49469	-377.84521	22.23239	106.30542	56.26504	18.42124	164.95836	-16.01697	745.64935	-744.97351	-88.07710	603.43494	-493.45566	65.60628	608.89441	-471.51563	-217.04243	551.27155	379.72180	-77.72970	557.07404	402.01065	
1770	17.690	-296.79684	28.34150	-494.47760	178.98932	21.80662	-311.44955	-378.53027	22.29930	106.21106	55.30472	18.52261	165.00914	-15.60159	745.32013	-745.17242	-86.49541	602.84149	-492.51505	66.89037	608.08765	-470.25436	-216.98900	551.82593	381.21164	-77.65376	556.63110	402.79089	
1771	17.700	-296.89697	28.41845	-494.63324	178.72081	21.38692	-311.16589	-379.52975	22.22174	106.16871	54.18422	18.79606	165.15663	-15.52090	745.00665	-745.39026	-84.49530	602.22864	-491.40311	68.82391	607.23407	-468.75336	-216.96820	551.52191	381.97913	-77.58092	556.19556	404.02164	
1772	17.710	-296.98602	28.46988	-494.92221	178.08298	20.68670	-310.88504	-380.73715	22.23115	105.68585	53.33519	18.85612	165.33394	-16.22321	744.64154	-745.44556	-82.83856	601.67908	-490.24384	70.69417	606.48914	-467.34579	-217.39308	551.32129	382.75769	-77.83660	556.07068	405.04010	
1773	17.720	-296.99866	28.24666	-495.26819	177.64555	20.21053	-310.80673	-381.34668	22.21810	105.35608	52.89201	19.08063	165.57971	-17.47500	744.46216	-745.59387	-80.86456	601.20135	-489.31699	72.52455	605.83105	-466.11127	-217.32222	551.12903	383.47681	-78.15910	555.50330	405.89905	
1774	17.730	-297.46732	28.11156	-495.69406	176.81816	19.68090	-310.58224	-382.40482	22.27355	105.12009	51.87727	19.06232	165.41251	-18.80500	744.26691	-745.38416	-78.93329	600.65137	-488.30127	74.35995	605.22284	-464.87259	-217.30458	550.85626	384.12100	-78.52863	555.18585	406.87845	
1775	17.740	-298.07837	27.97100	-495.77060	176.01820	19.30132	-310.62350	-383.12735	22.52122	105.12798	50.92933	18.89285	165.46619	-20.46846	744.07019	-745.35541	-77.36622	600.09351	-487.37482	76.11104	604.57379	-463.43491	-218.55176	550.80072	384.94382	-78.18038	554.85754	407.89456	
1776	17.750	-298.89240	27.87593	-495.91916	175.50807	19.00959	-310.45831	-383.52054	22.73307	105.02422	50.55564	19.09303	165.95993	-22.83188	744.22186	-745.84326	-75.84438	599.46564	-486.38248	77.41223	604.12573	-462.34439	-218.02994	550.44629	385.66125	-77.95410	554.48206	408.93475	
1777	17.760	-299.48642	27.66046	-495.94669	175.10890	18.88123	-310.13135	-384.18677	23.02207	104.81658	49.79673	18.72629	165.99425	-23.81875	743.93176	-745.57544	-74.81631	599.08966	-485.12372	78.54925	603.69330	-461.21228	-217.26833	550.17792	386.56213	-77.15160	554.18579	409.99246	
1778	17.770	-299.82590	28.09922	-495.52679	174.65912	18.38965	-310.06134	-385.08499	23.25813	104.87582	49.24285	18.30238	165.74715	-24.56556	743.83832	-745.18250	-74.28914	598.71796	-484.38632	79.16022	603.50073	-460.24805	-216.56265	549.72314	387.71628	-76.57954	554.00903	410.92682	
